<mxfile host="app.diagrams.net" agent="Mozilla/5.0 (Macintosh; Intel Mac OS X 10_15_7) AppleWebKit/537.36 (KHTML, like Gecko) Chrome/134.0.0.0 Safari/537.36" version="26.1.1">
  <diagram name="Page-1" id="U3AWrkgwHDcLr1mnGyCP">
    <mxGraphModel dx="1226" dy="692" grid="0" gridSize="10" guides="1" tooltips="1" connect="1" arrows="1" fold="1" page="1" pageScale="1" pageWidth="850" pageHeight="1100" math="0" shadow="0">
      <root>
        <mxCell id="0" />
        <mxCell id="1" parent="0" />
        <mxCell id="MGpuU8hFEbPRJtiscpOv-3" value="" style="edgeStyle=orthogonalEdgeStyle;rounded=0;orthogonalLoop=1;jettySize=auto;html=1;" edge="1" parent="1" source="MGpuU8hFEbPRJtiscpOv-1" target="MGpuU8hFEbPRJtiscpOv-2">
          <mxGeometry relative="1" as="geometry" />
        </mxCell>
        <mxCell id="MGpuU8hFEbPRJtiscpOv-1" value="Web Form" style="rounded=0;whiteSpace=wrap;html=1;" vertex="1" parent="1">
          <mxGeometry x="170" y="290" width="140" height="60" as="geometry" />
        </mxCell>
        <mxCell id="MGpuU8hFEbPRJtiscpOv-5" value="" style="edgeStyle=orthogonalEdgeStyle;rounded=0;orthogonalLoop=1;jettySize=auto;html=1;" edge="1" parent="1" source="MGpuU8hFEbPRJtiscpOv-2" target="MGpuU8hFEbPRJtiscpOv-4">
          <mxGeometry relative="1" as="geometry" />
        </mxCell>
        <mxCell id="MGpuU8hFEbPRJtiscpOv-14" value="" style="edgeStyle=orthogonalEdgeStyle;rounded=0;orthogonalLoop=1;jettySize=auto;html=1;" edge="1" parent="1" source="MGpuU8hFEbPRJtiscpOv-2" target="MGpuU8hFEbPRJtiscpOv-13">
          <mxGeometry relative="1" as="geometry" />
        </mxCell>
        <mxCell id="MGpuU8hFEbPRJtiscpOv-2" value="Call .NET Web API" style="whiteSpace=wrap;html=1;rounded=0;" vertex="1" parent="1">
          <mxGeometry x="360" y="290" width="120" height="60" as="geometry" />
        </mxCell>
        <mxCell id="MGpuU8hFEbPRJtiscpOv-7" value="" style="edgeStyle=orthogonalEdgeStyle;rounded=0;orthogonalLoop=1;jettySize=auto;html=1;" edge="1" parent="1" source="MGpuU8hFEbPRJtiscpOv-4" target="MGpuU8hFEbPRJtiscpOv-6">
          <mxGeometry relative="1" as="geometry" />
        </mxCell>
        <mxCell id="MGpuU8hFEbPRJtiscpOv-4" value="Create PDF with Quest PDF" style="whiteSpace=wrap;html=1;rounded=0;" vertex="1" parent="1">
          <mxGeometry x="360" y="430" width="120" height="60" as="geometry" />
        </mxCell>
        <mxCell id="MGpuU8hFEbPRJtiscpOv-9" value="" style="edgeStyle=orthogonalEdgeStyle;rounded=0;orthogonalLoop=1;jettySize=auto;html=1;" edge="1" parent="1" source="MGpuU8hFEbPRJtiscpOv-6" target="MGpuU8hFEbPRJtiscpOv-8">
          <mxGeometry relative="1" as="geometry" />
        </mxCell>
        <mxCell id="MGpuU8hFEbPRJtiscpOv-6" value="save PDF to Azure Blob Storage" style="whiteSpace=wrap;html=1;rounded=0;" vertex="1" parent="1">
          <mxGeometry x="360" y="540" width="120" height="60" as="geometry" />
        </mxCell>
        <mxCell id="MGpuU8hFEbPRJtiscpOv-11" value="" style="edgeStyle=orthogonalEdgeStyle;rounded=0;orthogonalLoop=1;jettySize=auto;html=1;entryX=0.75;entryY=1;entryDx=0;entryDy=0;curved=1;exitX=1;exitY=0.5;exitDx=0;exitDy=0;" edge="1" parent="1" source="MGpuU8hFEbPRJtiscpOv-8" target="MGpuU8hFEbPRJtiscpOv-2">
          <mxGeometry relative="1" as="geometry">
            <mxPoint x="560" y="400" as="targetPoint" />
            <Array as="points">
              <mxPoint x="540" y="670" />
              <mxPoint x="540" y="410" />
              <mxPoint x="450" y="410" />
            </Array>
          </mxGeometry>
        </mxCell>
        <mxCell id="MGpuU8hFEbPRJtiscpOv-12" value="Return URL" style="edgeLabel;html=1;align=center;verticalAlign=middle;resizable=0;points=[];" vertex="1" connectable="0" parent="MGpuU8hFEbPRJtiscpOv-11">
          <mxGeometry x="-0.1149" relative="1" as="geometry">
            <mxPoint as="offset" />
          </mxGeometry>
        </mxCell>
        <mxCell id="MGpuU8hFEbPRJtiscpOv-8" value="Retrieve SAS URL" style="whiteSpace=wrap;html=1;rounded=0;" vertex="1" parent="1">
          <mxGeometry x="360" y="640" width="120" height="60" as="geometry" />
        </mxCell>
        <mxCell id="MGpuU8hFEbPRJtiscpOv-16" value="" style="edgeStyle=orthogonalEdgeStyle;rounded=0;orthogonalLoop=1;jettySize=auto;html=1;" edge="1" parent="1" source="MGpuU8hFEbPRJtiscpOv-13" target="MGpuU8hFEbPRJtiscpOv-15">
          <mxGeometry relative="1" as="geometry" />
        </mxCell>
        <mxCell id="MGpuU8hFEbPRJtiscpOv-13" value="Open new browser tab with SAS URL" style="whiteSpace=wrap;html=1;rounded=0;" vertex="1" parent="1">
          <mxGeometry x="540" y="290" width="120" height="60" as="geometry" />
        </mxCell>
        <mxCell id="MGpuU8hFEbPRJtiscpOv-15" value="Show PDF" style="whiteSpace=wrap;html=1;rounded=0;" vertex="1" parent="1">
          <mxGeometry x="700" y="290" width="120" height="60" as="geometry" />
        </mxCell>
        <mxCell id="MGpuU8hFEbPRJtiscpOv-17" value="" style="shape=image;verticalLabelPosition=bottom;labelBackgroundColor=default;verticalAlign=top;aspect=fixed;imageAspect=0;image=https://upload.wikimedia.org/wikipedia/commons/thumb/a/a7/React-icon.svg/1200px-React-icon.svg.png;" vertex="1" parent="1">
          <mxGeometry x="215" y="367.90000000000003" width="50" height="44.5" as="geometry" />
        </mxCell>
        <mxCell id="MGpuU8hFEbPRJtiscpOv-18" value="" style="dashed=0;outlineConnect=0;html=1;align=center;labelPosition=center;verticalLabelPosition=bottom;verticalAlign=top;shape=mxgraph.webicons.adobe_pdf;fillColor=#F40C0C;gradientColor=#610603" vertex="1" parent="1">
          <mxGeometry x="740" y="360" width="45.2" height="52.4" as="geometry" />
        </mxCell>
        <mxCell id="MGpuU8hFEbPRJtiscpOv-19" value="" style="image;sketch=0;aspect=fixed;html=1;points=[];align=center;fontSize=12;image=img/lib/mscae/BlobBlock.svg;" vertex="1" parent="1">
          <mxGeometry x="300" y="549" width="50" height="42" as="geometry" />
        </mxCell>
      </root>
    </mxGraphModel>
  </diagram>
</mxfile>
